<?xml version="1.0" encoding="UTF-8"?>
<svg width="20px" height="20px" viewBox="0 0 20 20" version="1.1" xmlns="http://www.w3.org/2000/svg" xmlns:xlink="http://www.w3.org/1999/xlink">
    <!-- Generator: sketchtool 52.5 (67469) - http://www.bohemiancoding.com/sketch -->
    <title>CBCB5F65-D6EA-460F-AD18-790DEF55985A</title>
    <desc>Created with sketchtool.</desc>
    <defs>
        <path d="M10.0349339,7.99996253 C9.48053193,7.99996253 9.03058254,8.44796013 9.03058254,8.99995718 L9.03058254,11.9999411 L14.0523392,11.9999411 C14.6067411,11.9999411 15.0566905,11.4999438 15.0566905,10.9479467 L15.0566905,10.9209469 C15.0566905,10.3689498 14.6067411,9.99995182 14.0523392,9.99995182 L11.0392852,9.99995182 L11.0392852,8.99995718 C11.0392852,8.44796013 10.5893358,7.99996253 10.0349339,7.99996253 M16.9880581,10.9999465 C16.4878911,10.9999465 16.0710853,11.3669445 15.9997764,11.8589419 C15.5207008,15.1679242 12.3198331,17.6139111 8.7363076,16.8639151 C6.46245619,16.3879176 4.62348892,14.5569274 4.14541769,12.2929396 C3.32888006,8.42296027 6.28769906,4.99997859 10.0349339,4.99997859 L10.0349339,6.99996788 L15.0566905,3.99998394 L10.0349339,1 L10.0349339,2.99998929 C5.07042526,2.99998929 1.15747249,7.4829653 2.15680206,12.6049379 C2.76543896,15.7239212 5.2903782,18.2379077 8.42294998,18.8439045 C13.1695143,19.7618996 17.3697116,16.5159169 17.9904007,12.1259404 C18.0747662,11.5299436 17.5916732,10.9999465 16.9880581,10.9999465" id="path-1"></path>
    </defs>
    <g id="Symbols" stroke="none" stroke-width="1" fill="none" fill-rule="evenodd">
        <g id="Icon/20px/arrow_repeat-[#238]">
            <mask id="mask-2" fill="white">
                <use xlink:href="#path-1"></use>
            </mask>
            <use id="arrow_repeat-[#238]" fill-opacity="0" fill="#FFFFFF" xlink:href="#path-1"></use>
            <g id="⚙️Atoms/Colour/Grey-Darker/1---100%" mask="url(#mask-2)" fill="#9EA0A5">
                <g transform="translate(-1.000000, -1.000000)" id="Colour">
                    <rect x="0" y="0" width="22" height="22"></rect>
                </g>
            </g>
        </g>
    </g>
</svg>