<?xml version="1.0" encoding="UTF-8"?>
<svg width="20px" height="20px" viewBox="0 0 20 20" version="1.1" xmlns="http://www.w3.org/2000/svg" xmlns:xlink="http://www.w3.org/1999/xlink">
    <!-- Generator: sketchtool 52.5 (67469) - http://www.bohemiancoding.com/sketch -->
    <title>83309A04-29F0-4AF7-BB39-E2D0579018C2</title>
    <desc>Created with sketchtool.</desc>
    <defs>
        <path d="M12.0372543,0 L8.4962543,0 C3.8122543,0 0.186254301,3.171 0.00725430062,7.319 C-0.164745699,11.323 2.7422543,14.676 6.5552543,15.225 C7.0912543,15.302 7.5532543,15.641 7.8172543,16.113 L10.0002543,20.001 L12.1822543,16.114 C12.4472543,15.642 12.9102543,15.302 13.4452543,15.225 C17.2592543,14.675 20.1652543,11.323 19.9932543,7.319 C19.8142543,3.171 16.1882543,0 12.0372543,0 M11.9392543,1.996 C15.0962543,1.996 17.8172543,4.422 17.9462543,7.402 C18.0712543,10.317 16.0172543,12.829 13.1362543,13.244 C11.2162543,13.521 10.5472543,14.915 9.9942543,15.915 C9.4362543,14.915 8.7632543,13.523 6.8392543,13.245 C3.9572543,12.83 1.8792543,10.319 2.0052543,7.405 C2.1372543,4.324 4.9282543,2 8.4962543,2 L12.0002543,2" id="path-1"></path>
    </defs>
    <g id="Battle-of-Predictions-/-DraftKings" stroke="none" stroke-width="1" fill="none" fill-rule="evenodd">
        <g id="BofP-01-—-Tournaments-01" transform="translate(-1184.000000, -24.000000)">
            <g id="Top-Bar/Screen/X---Workspace">
                <g id="Right-Side" transform="translate(1184.000000, 14.000000)">
                    <g id="Messages">
                        <g id="Icon/20px/message-[#1577]" transform="translate(0.000000, 10.000000)">
                            <mask id="mask-2" fill="white">
                                <use xlink:href="#path-1"></use>
                            </mask>
                            <use id="message-[#1577]" fill-opacity="0" fill="#FFFFFF" fill-rule="evenodd" xlink:href="#path-1"></use>
                            <g id="⚙️Atoms/Colour/Grey-Darker/1---100%" mask="url(#mask-2)" fill="#9EA0A5" fill-rule="evenodd">
                                <g transform="translate(-1.000000, -1.000000)" id="Colour">
                                    <rect x="0" y="0" width="22" height="22"></rect>
                                </g>
                            </g>
                        </g>
                    </g>
                </g>
            </g>
        </g>
    </g>
</svg>