<?xml version="1.0" encoding="UTF-8"?>
<svg width="20px" height="20px" viewBox="0 0 20 20" version="1.1" xmlns="http://www.w3.org/2000/svg" xmlns:xlink="http://www.w3.org/1999/xlink">
    <!-- Generator: sketchtool 52.5 (67469) - http://www.bohemiancoding.com/sketch -->
    <title>B089A1C4-274F-4281-89B6-D523ED772EF1</title>
    <desc>Created with sketchtool.</desc>
    <defs>
        <path d="M14,10 C14,10.552 13.552,11 13,11 L11,11 L11,13 C11,13.552 10.552,14 10,14 C9.448,14 9,13.552 9,13 L9,11 L7,11 C6.448,11 6,10.552 6,10 C6,9.448 6.448,9 7,9 L9,9 L9,7 C9,6.448 9.448,6 10,6 C10.552,6 11,6.448 11,7 L11,9 L13,9 C13.552,9 14,9.448 14,10 M10,18 C5.589,18 2,14.411 2,10 C2,5.589 5.589,2 10,2 C14.411,2 18,5.589 18,10 C18,14.411 14.411,18 10,18 M10,0 C4.477,0 0,4.477 0,10 C0,15.523 4.477,20 10,20 C15.523,20 20,15.523 20,10 C20,4.477 15.523,0 10,0" id="path-1"></path>
    </defs>
    <g id="Battle-of-Predictions-/-DraftKings" stroke="none" stroke-width="1" fill="none" fill-rule="evenodd">
        <g id="BofP-01-—-Tournaments-01" transform="translate(-1004.000000, -26.000000)">
            <g id="Top-Bar/Screen/X---Workspace">
                <g id="Left-Side" transform="translate(30.000000, 14.000000)">
                    <g id="Logo-Section">
                        <g id="Button" transform="translate(964.000000, 3.000000)">
                            <g id="Value" transform="translate(10.000000, 9.000000)">
                                <g id="Icon/20px/plus_circle-[#1427]">
                                    <mask id="mask-2" fill="white">
                                        <use xlink:href="#path-1"></use>
                                    </mask>
                                    <use fill-opacity="0" fill="#FFFFFF" fill-rule="evenodd" xlink:href="#path-1"></use>
                                    <g id="⚙️Atoms/Colour/White/1---100%" mask="url(#mask-2)" fill="#FFFFFF" fill-rule="evenodd">
                                        <g transform="translate(-1.000000, -1.000000)" id="Rectangle">
                                            <rect x="0" y="0" width="22" height="22"></rect>
                                        </g>
                                    </g>
                                </g>
                            </g>
                        </g>
                    </g>
                </g>
            </g>
        </g>
    </g>
</svg>