<?xml version="1.0" encoding="UTF-8"?>
<svg width="20px" height="15px" viewBox="0 0 20 15" version="1.1" xmlns="http://www.w3.org/2000/svg" xmlns:xlink="http://www.w3.org/1999/xlink">
    <!-- Generator: sketchtool 52.5 (67469) - http://www.bohemiancoding.com/sketch -->
    <title>1E3E1362-ED0D-4254-9C28-804BC85387F7</title>
    <desc>Created with sketchtool.</desc>
    <defs>
        <path d="M11.5372583,9.761764 C12.0368721,8.8542371 12.8286014,8.12977082 13.7825891,7.74001291 C13.4432494,7.34324663 13.2304528,6.83409161 13.2304528,6.27044508 C13.2304528,4.84401636 14.5452523,3.72523761 16.0285867,4.05956571 C16.8037339,4.23496025 17.4449611,4.8366373 17.6702418,5.5995184 C17.9148161,6.42597293 17.687833,7.19055688 17.2168431,7.74001291 C18.6831538,8.33941949 19.7658631,9.72781768 19.9945486,11.3568867 C20.042215,11.696891 19.7709702,12 19.4282258,12 C19.1473342,12 18.9101369,11.793954 18.8704149,11.5163879 C18.6366223,9.86574931 17.2270574,8.55057408 15.5241168,8.53865406 C15.515605,8.53865406 15.508228,8.54092454 15.5002836,8.54092454 C15.4917717,8.54092454 15.4843948,8.53865406 15.4758829,8.53865406 C14.199576,8.54758779 13.0880608,9.28857147 12.5128133,10.3539401 C14.2869689,11.6167643 15.5338053,13.6108738 15.8506063,15.867 C15.9346063,16.466 15.4566063,17 14.8526063,17 C14.3576063,17 13.9396063,16.637 13.8696063,16.148 C13.4576063,13.24 10.9736063,10.923 7.9726063,10.902 C7.9576063,10.902 7.9446063,10.906 7.9306063,10.906 C7.9156063,10.906 7.9026063,10.902 7.8876063,10.902 C4.8866063,10.923 2.4026063,13.24 1.9906063,16.147 C1.9206063,16.637 1.5026063,17 1.0086063,17 C0.403606299,17 -0.0743937008,16.466 0.00960629923,15.867 C0.412606299,12.997 2.3206063,10.55 4.9036063,9.495 C4.3056063,8.796 3.9306063,7.899 3.9306063,6.906 C3.9306063,4.393 6.2476063,2.422 8.8616063,3.011 C10.2276063,3.32 11.3576063,4.38 11.7546063,5.724 C12.1856063,7.18 11.7856063,8.527 10.9556063,9.495 C11.1535827,9.57590678 11.347591,9.66497293 11.5372583,9.761764 Z M7.9726063,8.902 C9.0556063,8.879 9.9306063,7.995 9.9306063,6.906 C9.9306063,5.803 9.0326063,4.906 7.9306063,4.906 C6.8276063,4.906 5.9306063,5.803 5.9306063,6.906 C5.9306063,7.995 6.8046063,8.879 7.8876063,8.902 C7.9026063,8.902 7.9156063,8.9 7.9306063,8.9 C7.9446063,8.9 7.9586063,8.902 7.9726063,8.902 Z M15.5241168,7.40341433 C16.1386735,7.39035908 16.635199,6.88858312 16.635199,6.27044508 C16.635199,5.64436037 16.125622,5.13520535 15.5002836,5.13520535 C14.8743778,5.13520535 14.3653682,5.64436037 14.3653682,6.27044508 C14.3653682,6.88858312 14.8613262,7.39035908 15.4758829,7.40341433 C15.4843948,7.40341433 15.4917717,7.40227909 15.5002836,7.40227909 C15.508228,7.40227909 15.5161724,7.40341433 15.5241168,7.40341433 Z" id="path-1"></path>
    </defs>
    <g id="Battle-of-Predictions-/-DraftKings" stroke="none" stroke-width="1" fill="none" fill-rule="evenodd">
        <g id="BofP-01-—-Tournaments-01" transform="translate(-1074.000000, -91.000000)">
            <g id="Button-Copy" transform="translate(1064.000000, 80.000000)">
                <g id="Value" transform="translate(10.000000, 9.000000)">
                    <g id="Icon/20px/group-[Extra]">
                        <mask id="mask-2" fill="white">
                            <use xlink:href="#path-1"></use>
                        </mask>
                        <use id="Combined-Shape" fill-opacity="0" fill="#FFFFFF" fill-rule="evenodd" xlink:href="#path-1"></use>
                        <g id="⚙️Atoms/Colour/White/1---100%" mask="url(#mask-2)" fill="#FFFFFF" fill-rule="evenodd">
                            <g transform="translate(-1.000000, -1.000000)" id="Rectangle">
                                <rect x="0" y="0" width="22" height="22"></rect>
                            </g>
                        </g>
                    </g>
                </g>
            </g>
        </g>
    </g>
</svg>