<?xml version="1.0" encoding="UTF-8"?>
<svg width="20px" height="20px" viewBox="0 0 20 20" version="1.1" xmlns="http://www.w3.org/2000/svg" xmlns:xlink="http://www.w3.org/1999/xlink">
    <!-- Generator: sketchtool 52.5 (67469) - http://www.bohemiancoding.com/sketch -->
    <title>2BC2E019-4477-4BDA-94F8-D68A1CBB3A39</title>
    <desc>Created with sketchtool.</desc>
    <defs>
        <path d="M16.971246,9 L2.99680511,9 L2.99680511,5.971 C2.99680511,5.435 3.43111022,5 3.96625399,5 L4.99361022,5 L4.99361022,7 L6.99041534,7 L6.99041534,5 L12.9776358,5 L12.9776358,7 L14.9744409,7 L14.9744409,5 L15.9728435,5 C16.5239617,5 16.971246,5.448 16.971246,6 L16.971246,9 Z M16.971246,16 C16.971246,16.55 16.5219649,17 15.9728435,17 L3.99520767,17 C3.44408946,17 2.99680511,16.552 2.99680511,16 L2.99680511,11 L16.971246,11 L16.971246,16 Z M1.06389776,16.761 C1.06389776,17.865 2.02136581,19 3.12360224,19 L17.0980431,19 C18.201278,19 19,17.979 19,16.761 C19,16.372 18.9680511,6.36 18.9680511,5.708 C18.9680511,3.626 18.6875,3 14.9744409,3 L14.9744409,1 L12.9776358,1 L12.9776358,3 L6.99041534,3 L6.99041534,1 L4.99361022,1 L4.99361022,3 L2.99680511,3 C1.8985623,3 1,3.9 1,5 L1.06389776,16.761 Z" id="path-1"></path>
    </defs>
    <g id="Symbols" stroke="none" stroke-width="1" fill="none" fill-rule="evenodd">
        <g id="Icon/20px/calendar-[#1322]">
            <mask id="mask-2" fill="white">
                <use xlink:href="#path-1"></use>
            </mask>
            <use id="calendar-[#1322]" fill-opacity="0" fill="#FFFFFF" xlink:href="#path-1"></use>
            <g id="⚙️Atoms/Colour/Grey-Darker/1---100%" mask="url(#mask-2)" fill="#ffffff ">
                <g transform="translate(-1.000000, -1.000000)" id="Colour">
                    <rect x="0" y="0" width="22" height="22"></rect>
                </g>
            </g>
        </g>
    </g>
</svg>